<?xml version="1.0" encoding="iso-8859-1"?>
<!-- Uploaded to: SVG Repo, www.svgrepo.com, Generator: SVG Repo Mixer Tools -->
<svg height="800px" width="800px" version="1.1" id="Layer_1" xmlns="http://www.w3.org/2000/svg" xmlns:xlink="http://www.w3.org/1999/xlink" 
	 viewBox="0 0 512 512" xml:space="preserve">
<path style="fill:#ECB45C;" d="M289.457,121.032c34.882-15.118,59.634-53.187,59.634-97.759c-23.274,0-23.274,11.636-46.548,11.636
	s-23.274-11.636-46.549-11.636c-23.27,0-23.27,11.636-46.542,11.636s-23.272-11.636-46.543-11.636
	c0,44.57,24.748,82.637,59.627,97.757"/>
<polyline style="fill:#E9A440;" points="442.182,302.545 512,279.273 512,372.364 442.182,349.091 "/>
<polyline style="fill:#ECB45C;" points="69.818,349.091 0,372.364 0,279.273 69.818,302.545 "/>
<path style="fill:#E9A440;" d="M302.543,34.909c-23.273,0-23.274-11.635-46.543-11.636v97.758l33.458,0.001
	c34.881-15.118,59.633-53.187,59.633-97.759C325.817,23.273,325.817,34.909,302.543,34.909z"/>
<path style="fill:#EFC27B;" d="M442.182,302.545c-10.502-51.414-39.699-97.958-73.122-131.65
	c-33.961-33.692-72.15-54.531-113.06-54.531c-40.91-0.001-79.098,20.838-113.06,54.53c-33.423,33.693-62.62,80.239-73.122,131.651
	s1.979,97.958,35.941,131.651c33.423,33.692,88.326,54.53,150.241,54.53c61.915-0.001,116.819-20.84,150.241-54.531
	C440.202,400.504,452.684,353.958,442.182,302.545z"/>
<path style="fill:#ECB45C;" d="M442.182,302.545c-10.502-51.414-39.699-97.958-73.122-131.65
	c-33.961-33.692-72.15-54.531-113.06-54.531v372.364c61.915-0.001,116.819-20.84,150.241-54.531
	C440.202,400.504,452.684,353.958,442.182,302.545z"/>
<circle style="fill:#F8E99B;" cx="256" cy="349.091" r="69.818"/>
<path style="fill:#58575D;" d="M145.455,308.364h-0.002c-12.831,0-23.27-10.44-23.27-23.273
	c0.005-12.835,10.445-23.273,23.273-23.273c12.833,0,23.273,10.44,23.273,23.273S158.287,308.364,145.455,308.364z"/>
<path style="fill:#454449;" d="M366.545,308.364h-0.002c-12.831,0-23.27-10.44-23.27-23.273
	c0.005-12.835,10.445-23.273,23.273-23.273c12.833,0,23.273,10.44,23.273,23.273S379.378,308.364,366.545,308.364z"/>
<path style="fill:#F6E27D;" d="M256,279.273v139.636c38.559,0,69.818-31.259,69.818-69.818S294.559,279.273,256,279.273z"/>
<path style="fill:#B6731B;" d="M256,372.364h-0.002c-12.831,0-23.27-10.44-23.27-23.273c0.005-12.835,10.445-23.273,23.273-23.273
	c12.833,0,23.273,10.44,23.273,23.273C279.273,361.923,268.833,372.364,256,372.364z"/>
</svg>